<?xml version="1.0" encoding="UTF-8"?>
<svg version="1.1" xmlns="http://www.w3.org/2000/svg" width="523" height="312">
<path d="M0 0 C172.59 0 345.18 0 523 0 C523 102.96 523 205.92 523 312 C350.41 312 177.82 312 0 312 C0 209.04 0 106.08 0 0 Z " fill="#FEFEFE" transform="translate(0,0)"/>
<path d="M0 0 C3.56986793 1.36718346 4.68082803 2.526745 6.8125 5.6875 C8.71985583 11.0080189 8.75543228 15.58956099 6.75 20.8125 C4.98048644 24.03554256 4.09658177 25.17627913 1 27 C-3.05439899 27.66922679 -6.93787062 27.60487992 -11 27 C-14.48242391 24.47353559 -15.65226822 23.04319535 -17 19 C-18.00903614 9.01054217 -18.00903614 9.01054217 -15.953125 4.9140625 C-11.31561004 -0.67823496 -6.8340599 -0.58208081 0 0 Z " fill="#0D0A0A" transform="translate(291,164)"/>
<path d="M0 0 C3.92425808 1.30808603 5.50915088 2.2964496 7.875 5.6875 C9.68808745 11.02603526 9.75320204 15.59536941 7.75 20.8125 C5.98048644 24.03554256 5.09658177 25.17627913 2 27 C-2.05366518 27.66910567 -5.93913712 27.61023896 -10 27 C-12.97361086 24.78436838 -14.36959793 23.26080415 -16 20 C-17.04817082 9.15891899 -17.04817082 9.15891899 -14.953125 4.84375 C-10.55290711 -0.43651147 -6.46296434 -0.58754221 0 0 Z " fill="#0D0B0D" transform="translate(248,121)"/>
<path d="M0 0 C3.92425808 1.30808603 5.50915088 2.2964496 7.875 5.6875 C9.68808745 11.02603526 9.75320204 15.59536941 7.75 20.8125 C5.98048644 24.03554256 5.09658177 25.17627913 2 27 C-2.05366518 27.66910567 -5.93913712 27.61023896 -10 27 C-12.97361086 24.78436838 -14.36959793 23.26080415 -16 20 C-17.04817082 9.15891899 -17.04817082 9.15891899 -14.953125 4.84375 C-10.55290711 -0.43651147 -6.46296434 -0.58754221 0 0 Z " fill="#0E0D0E" transform="translate(304,121)"/>
<path d="M0 0 C2.536875 -0.103125 5.07375 -0.20625 7.6875 -0.3125 C8.47729248 -0.35802002 9.26708496 -0.40354004 10.08081055 -0.45043945 C14.21517496 -0.53146442 15.60379217 -0.32083936 18.95703125 2.39453125 C22.47207687 6.87739058 22.65628869 10.4215461 22 16 C20.46311474 20.48131394 18.9789178 23.34738813 15 26 C12.3886146 26.14269866 9.91622711 26.18772704 7.3125 26.125 C4.899375 26.08375 2.48625 26.0425 0 26 C0 17.42 0 8.84 0 0 Z " fill="#050202" transform="translate(325,165)"/>
<path d="M0 0 C2.908125 -0.061875 5.81625 -0.12375 8.8125 -0.1875 C9.72491455 -0.21481201 10.6373291 -0.24212402 11.57739258 -0.27026367 C12.66250122 -0.28150269 12.66250122 -0.28150269 13.76953125 -0.29296875 C14.87711792 -0.31653442 14.87711792 -0.31653442 16.00708008 -0.34057617 C18.5570717 0.09519968 19.42310713 0.9914044 21 3 C21.36328125 4.9375 21.36328125 4.9375 21.3125 7 C21.30863281 7.680625 21.30476563 8.36125 21.30078125 9.0625 C21 11 21 11 19 14 C19.33 14.33 19.66 14.66 20 15 C20.20768229 16.47396739 20.36716017 17.9549126 20.5 19.4375 C20.79146944 22.84497505 20.79146944 22.84497505 22 26 C19.69 26 17.38 26 15 26 C14.67 23.03 14.34 20.06 14 17 C11.03 16.67 8.06 16.34 5 16 C5 19.3 5 22.6 5 26 C3.35 26 1.7 26 0 26 C0 17.42 0 8.84 0 0 Z " fill="#030203" transform="translate(375,165)"/>
<path d="M0 0 C2.2026074 1.76208592 3.71529959 3.3479888 5.1875 5.75 C5.1875 6.41 5.1875 7.07 5.1875 7.75 C2.375 7.9375 2.375 7.9375 -0.8125 7.75 C-1.8125 6.75 -2.8125 5.75 -3.8125 4.75 C-6.8125 4.16666667 -6.8125 4.16666667 -9.8125 4.75 C-12.02502984 6.52002387 -12.66744661 7.87609808 -13.12890625 10.65625 C-13.33722641 14.25817273 -13.15004199 16.21772224 -11.1875 19.3125 C-8.82961938 21.0196889 -8.82961938 21.0196889 -5.6875 20.75 C-2.70370747 20.03639604 -2.70370747 20.03639604 -1.4375 17.6875 C-1.128125 16.7284375 -1.128125 16.7284375 -0.8125 15.75 C-2.4625 15.75 -4.1125 15.75 -5.8125 15.75 C-5.8125 14.43 -5.8125 13.11 -5.8125 11.75 C-2.1825 11.75 1.4475 11.75 5.1875 11.75 C5.1875 16.37 5.1875 20.99 5.1875 25.75 C3.8675 25.75 2.5475 25.75 1.1875 25.75 C1.1875 25.09 1.1875 24.43 1.1875 23.75 C0.62933594 24.07097656 0.07117188 24.39195312 -0.50390625 24.72265625 C-4.49640545 26.49935217 -8.53785019 26.44860782 -12.8125 25.75 C-15.63674288 23.55977082 -17.22758603 21.91982793 -18.8125 18.75 C-18.98721848 16.65051399 -19.07967852 14.54375592 -19.125 12.4375 C-19.16238281 11.30699219 -19.19976562 10.17648438 -19.23828125 9.01171875 C-18.72876172 5.10851869 -17.51382732 3.5472623 -14.8125 0.75 C-10.45956041 -2.51470469 -4.74573332 -2.10921481 0 0 Z " fill="#090609" transform="translate(278.8125,122.25)"/>
<path d="M0 0 C3.83625 -0.12375 3.83625 -0.12375 7.75 -0.25 C8.54889648 -0.28641602 9.34779297 -0.32283203 10.17089844 -0.36035156 C13.65896081 -0.41482508 15.63456302 -0.26348121 18.4921875 1.796875 C20.66342814 4.96936132 20.40286782 7.23990037 20 11 C18.98263229 13.76142665 18.63829259 14.68085371 16 16 C14.29636178 16.22622081 12.58671299 16.40888473 10.875 16.5625 C9.96492187 16.64628906 9.05484375 16.73007813 8.1171875 16.81640625 C7.41851562 16.87699219 6.71984375 16.93757813 6 17 C5.67 19.97 5.34 22.94 5 26 C3.35 26 1.7 26 0 26 C0 17.42 0 8.84 0 0 Z " fill="#040304" transform="translate(127,165)"/>
<path d="M0 0 C1.134375 0.020625 2.26875 0.04125 3.4375 0.0625 C4.78136556 3.6419717 6.11073814 7.22665713 7.4375 10.8125 C7.8190625 11.82828125 8.200625 12.8440625 8.59375 13.890625 C8.9546875 14.8703125 9.315625 15.85 9.6875 16.859375 C10.02265625 17.76010742 10.3578125 18.66083984 10.703125 19.58886719 C11.4375 22.0625 11.4375 22.0625 11.4375 26.0625 C9.4575 26.0625 7.4775 26.0625 5.4375 26.0625 C5.1075 24.0825 4.7775 22.1025 4.4375 20.0625 C1.4675 20.3925 -1.5025 20.7225 -4.5625 21.0625 C-5.5525 23.5375 -5.5525 23.5375 -6.5625 26.0625 C-8.5425 26.0625 -10.5225 26.0625 -12.5625 26.0625 C-6.0469104 0.10608615 -6.0469104 0.10608615 0 0 Z " fill="#070302" transform="translate(183.5625,164.9375)"/>
<path d="M0 0 C0.99 0.66 1.98 1.32 3 2 C2.125 6.875 2.125 6.875 1 8 C0.90031328 10.10221693 0.87031797 12.20792604 0.875 14.3125 C0.87242187 15.46363281 0.86984375 16.61476562 0.8671875 17.80078125 C0.98690015 21.50257384 0.98690015 21.50257384 2 25 C2.99 25.33 3.98 25.66 5 26 C4.34 26.66 3.68 27.32 3 28 C3 27.34 3 26.68 3 26 C0.61435923 26.57584432 -1.66682784 27.22227595 -4 28 C-4 23.38 -4 18.76 -4 14 C-7.63 14 -11.26 14 -15 14 C-15 15.32 -15 16.64 -15 18 C-13.35 18 -11.7 18 -10 18 C-10.3125 19.875 -10.3125 19.875 -11 22 C-14 24 -14 24 -16.4375 23.875 C-19.69795242 22.76167478 -21.02839839 21.84786899 -23 19 C-23.59566305 14.30915346 -23.62175128 12.14784852 -21.375 8 C-19 6 -19 6 -15.9375 5.5625 C-13 6 -13 6 -10 8 C-10 8.66 -10 9.32 -10 10 C-8.02 10 -6.04 10 -4 10 C-4.66 8.35 -5.32 6.7 -6 5 C-4.02 3.35 -2.04 1.7 0 0 Z " fill="#E6E5E1" transform="translate(288,120)"/>
<path d="M0 0 C1.65 0 3.3 0 5 0 C5 3.3 5 6.6 5 10 C8.3 10 11.6 10 15 10 C15 6.7 15 3.4 15 0 C16.98 0 18.96 0 21 0 C21 8.58 21 17.16 21 26 C19.02 26 17.04 26 15 26 C15 22.04 15 18.08 15 14 C11.7 14 8.4 14 5 14 C5 17.96 5 21.92 5 26 C3.35 26 1.7 26 0 26 C0 17.42 0 8.84 0 0 Z " fill="#070203" transform="translate(249,165)"/>
<path d="M0 0 C6.27 0 12.54 0 19 0 C19 1.32 19 2.64 19 4 C14.38 4 9.76 4 5 4 C5 5.98 5 7.96 5 10 C9.29 10 13.58 10 18 10 C18 11.32 18 12.64 18 14 C13.71 14 9.42 14 5 14 C5 16.31 5 18.62 5 21 C9.95 21 14.9 21 20 21 C20 22.65 20 24.3 20 26 C13.4 26 6.8 26 0 26 C0 17.42 0 8.84 0 0 Z " fill="#020305" transform="translate(351,165)"/>
<path d="M0 0 C6.27 0 12.54 0 19 0 C19 1.32 19 2.64 19 4 C14.38 4 9.76 4 5 4 C5 5.98 5 7.96 5 10 C9.29 10 13.58 10 18 10 C18 11.32 18 12.64 18 14 C13.71 14 9.42 14 5 14 C5 16.31 5 18.62 5 21 C9.95 21 14.9 21 20 21 C20 22.65 20 24.3 20 26 C13.4 26 6.8 26 0 26 C0 17.42 0 8.84 0 0 Z " fill="#030305" transform="translate(225,165)"/>
<path d="M0 0 C2.458452 1.82067177 3.38111213 3.30185355 5 6 C5 6.99 5 7.98 5 9 C2.1875 9.25 2.1875 9.25 -1 9 C-2.0260734 7.68662604 -3.02727325 6.35335895 -4 5 C-6.5 4.33333333 -6.5 4.33333333 -9 5 C-11.14223357 6.77288296 -11.86058039 8.17028327 -12.3203125 10.90625 C-12.52415307 14.54820149 -12.35386457 16.46265009 -10.3125 19.5625 C-8.08201673 21.24183865 -8.08201673 21.24183865 -5.375 20.9375 C-2.67710239 20.13344454 -2.67710239 20.13344454 -1 17 C2.125 16.8125 2.125 16.8125 5 17 C2.375 23.75 2.375 23.75 -1 26 C-4.71819916 26.54679399 -8.28193784 26.5490121 -12 26 C-14.89683868 23.7984026 -16.39297231 22.21405538 -18 19 C-18.17471848 16.90051399 -18.26717852 14.79375592 -18.3125 12.6875 C-18.34988281 11.55699219 -18.38726562 10.42648438 -18.42578125 9.26171875 C-17.90997187 5.31033493 -16.80817297 3.77866503 -14 1 C-9.62033076 -1.96090315 -4.92286915 -1.38381136 0 0 Z " fill="#0B0808" transform="translate(216,165)"/>
<path d="M0 0 C1.32 0.99 2.64 1.98 4 3 C4.33 2.01 4.66 1.02 5 0 C5 8.58 5 17.16 5 26 C5.66 26.33 6.32 26.66 7 27 C5.68 27 4.36 27 3 27 C2.34 25.02 1.68 23.04 1 21 C-3.95 21 -8.9 21 -14 21 C-14 18.69 -14 16.38 -14 14 C-9.71 14 -5.42 14 -1 14 C-1 12.68 -1 11.36 -1 10 C-5.29 10 -9.58 10 -14 10 C-14 8.02 -14 6.04 -14 4 C-9.38 4 -4.76 4 0 4 C0 2.68 0 1.36 0 0 Z " fill="#DADBD9" transform="translate(370,165)"/>
<path d="M0 0 C0.33 0 0.66 0 1 0 C1 8.58 1 17.16 1 26 C0.67 26 0.34 26 0 26 C-0.33 23.03 -0.66 20.06 -1 17 C-3.64 17 -6.28 17 -9 17 C-9.226875 17.639375 -9.45375 18.27875 -9.6875 18.9375 C-11 21 -11 21 -13.3125 22.0625 C-16 22 -16 22 -18.8125 20.0625 C-21.24589841 16.65574223 -21.69936052 15.0072876 -21.421875 10.9375 C-20.73070929 7.76325749 -19.42811712 6.09999319 -17 4 C-14.4375 3.5 -14.4375 3.5 -12 4 C-10.1875 5.375 -10.1875 5.375 -9 7 C-9 7.66 -9 8.32 -9 9 C-7.02 9 -5.04 9 -3 9 C-3.33 7.35 -3.66 5.7 -4 4 C-3.01 3.67 -2.02 3.34 -1 3 C-0.67 2.01 -0.34 1.02 0 0 Z " fill="#E9ECEB" transform="translate(224,165)"/>
<path d="M0 0 C0.33 0 0.66 0 1 0 C1.33 1.98 1.66 3.96 2 6 C2.66 4.02 3.32 2.04 4 0 C4.33 0 4.66 0 5 0 C5.33 8.91 5.66 17.82 6 27 C4.35 26.67 2.7 26.34 1 26 C1 24.35 1 22.7 1 21 C-3.95 21 -8.9 21 -14 21 C-14 18.69 -14 16.38 -14 14 C-9.71 14 -5.42 14 -1 14 C-1 12.68 -1 11.36 -1 10 C-5.29 10 -9.58 10 -14 10 C-14 8.02 -14 6.04 -14 4 C-9.38 4 -4.76 4 0 4 C0 2.68 0 1.36 0 0 Z " fill="#DDDDDA" transform="translate(244,165)"/>
<path d="M0 0 C3 0.5625 3 0.5625 5.375 2 C7.78216697 5.79591714 7.90023942 9.19323456 7 13.5625 C4.8125 16.6875 4.8125 16.6875 2 18.5625 C-0.5625 18.6875 -0.5625 18.6875 -3 17.5625 C-6.03341858 14.77503428 -6.91449695 13.16102133 -7.5 9.0625 C-6.76775981 3.9368187 -5.29811842 0.9933972 0 0 Z " fill="#F1F2F2" transform="translate(286,168.4375)"/>
<path d="M0 0 C3 0.5625 3 0.5625 5.375 2 C7.78216697 5.79591714 7.90023942 9.19323456 7 13.5625 C4.8125 16.6875 4.8125 16.6875 2 18.5625 C-0.5625 18.6875 -0.5625 18.6875 -3 17.5625 C-6.03341858 14.77503428 -6.91449695 13.16102133 -7.5 9.0625 C-6.76775981 3.9368187 -5.29811842 0.9933972 0 0 Z " fill="#F7F6F1" transform="translate(244,125.4375)"/>
<path d="M0 0 C2.375 1.4375 2.375 1.4375 4 4 C4.62477892 7.12973366 4.64442343 9.87232423 4 13 C1.8125 16.125 1.8125 16.125 -1 18 C-3.90849159 18 -5.31204201 17.51596849 -7.625 15.78125 C-9.52886447 13.31488012 -9.39987177 11.58409981 -9.375 8.5 C-9.38273437 7.5409375 -9.39046875 6.581875 -9.3984375 5.59375 C-9 3 -9 3 -7.66015625 1.18359375 C-5.03403727 -0.6886746 -3.12825865 -0.44689409 0 0 Z " fill="#F5F6F4" transform="translate(303,126)"/>
<path d="M0 0 C1.65 0 3.3 0 5 0 C5 6.93 5 13.86 5 21 C9.29 21 13.58 21 18 21 C18 22.65 18 24.3 18 26 C12.06 26 6.12 26 0 26 C0 17.42 0 8.84 0 0 Z " fill="#050103" transform="translate(151,165)"/>
<path d="M0 0 C1.65 0 3.3 0 5 0 C5 6.93 5 13.86 5 21 C9.29 21 13.58 21 18 21 C18 22.65 18 24.3 18 26 C12.06 26 6.12 26 0 26 C0 17.42 0 8.84 0 0 Z " fill="#030103" transform="translate(303,165)"/>
<path d="M0 0 C1.65 0 3.3 0 5 0 C5 6.93 5 13.86 5 21 C9.29 21 13.58 21 18 21 C18 22.65 18 24.3 18 26 C12.06 26 6.12 26 0 26 C0 17.42 0 8.84 0 0 Z " fill="#030103" transform="translate(211,122)"/>
<path d="M0 0 C7 0 7 0 9.4375 1.5 C11.61340759 4.98145214 11.61612166 8.06150081 11 12 C10 15 10 15 8 17 C5.36 17 2.72 17 0 17 C0 11.39 0 5.78 0 0 Z " fill="#E9EFF0" transform="translate(330,169)"/>
<path d="M0 0 C0.99 0.66 1.98 1.32 3 2 C2.125 6.875 2.125 6.875 1 8 C0.90031328 10.10221693 0.87031797 12.20792604 0.875 14.3125 C0.87242187 15.46363281 0.86984375 16.61476562 0.8671875 17.80078125 C0.98690015 21.50257384 0.98690015 21.50257384 2 25 C2.99 25.33 3.98 25.66 5 26 C4.34 26.66 3.68 27.32 3 28 C3 27.34 3 26.68 3 26 C0.61435923 26.57584432 -1.66682784 27.22227595 -4 28 C-4 23.05 -4 18.1 -4 13 C-6.64 13 -9.28 13 -12 13 C-11.67 12.34 -11.34 11.68 -11 11 C-8.67843403 10.59270772 -6.3431213 10.25561323 -4 10 C-4.66 8.35 -5.32 6.7 -6 5 C-4.02 3.35 -2.04 1.7 0 0 Z " fill="#F5FBFA" transform="translate(288,120)"/>
<path d="M0 0 C7.50769231 -0.36923077 7.50769231 -0.36923077 10 1.5 C10.495 2.2425 10.495 2.2425 11 3 C10.34 4.32 9.68 5.64 9 7 C6.03 7 3.06 7 0 7 C0 7.66 0 8.32 0 9 C2.76201268 10.38100634 5.08996496 9.93187719 8.125 9.7421875 C8.74375 9.82726562 9.3625 9.91234375 10 10 C10.99 11.485 10.99 11.485 12 13 C7.9470662 13 4.02652073 12.46684298 0 12 C0 15.3 0 18.6 0 22 C-1.65 22 -3.3 22 -5 22 C-5.32381158 16.6031403 -4.46159726 13.73384089 -2 9 C-1.19279327 6.02556551 -0.57190585 3.02773686 0 0 Z " fill="#040404" transform="translate(380,169)"/>
<path d="M0 0 C3.86170214 3.86170214 4.82045676 9.46105795 5.4375 14.75 C4.91335092 18.6436789 3.75053706 20.24946294 1 23 C-1.52475462 24.26237731 -3.31200466 24.09856404 -6.125 24.0625 C-7.03507812 24.05347656 -7.94515625 24.04445312 -8.8828125 24.03515625 C-9.93082031 24.01775391 -9.93082031 24.01775391 -11 24 C-11.66 22.35 -12.32 20.7 -13 19 C-11.7625 19.0825 -10.525 19.165 -9.25 19.25 C-6.28234158 19.22369097 -5.13993907 19.08046497 -2.5 17.5625 C0.03073827 13.23915545 -0.42829481 8.51034461 -1.51953125 3.71875 C-1.67808594 3.1515625 -1.83664062 2.584375 -2 2 C-1.34 2 -0.68 2 0 2 C0 1.34 0 0.68 0 0 Z " fill="#070508" transform="translate(293,167)"/>
<path d="M0 0 C1.32 0.33 2.64 0.66 4 1 C3.125 5.875 3.125 5.875 2 7 C1.87475541 8.78837622 1.82426324 10.58228214 1.8125 12.375 C1.79832031 13.35210937 1.78414063 14.32921875 1.76953125 15.3359375 C1.80458017 18.22787022 1.80458017 18.22787022 4 21 C3.34 21.33 2.68 21.66 2 22 C2.33 23.32 2.66 24.64 3 26 C-0.66932093 24.355132 -3.17666069 22.64667862 -5 19 C-6.056533 8.07243012 -6.056533 8.07243012 -3.8828125 3.80859375 C-2.5 2.1875 -2.5 2.1875 0 0 Z " fill="#01030B" transform="translate(293,122)"/>
<path d="M0 0 C2 1.0625 2 1.0625 4 3 C4.46369995 7.25058287 4.33012265 10.35918336 2 14 C0.68 14 -0.64 14 -2 14 C-2.33 13.34 -2.66 12.68 -3 12 C-4.89533342 11.53476937 -4.89533342 11.53476937 -7.0625 11.375 C-8.361875 11.25125 -9.66125 11.1275 -11 11 C-11.04241723 8.66705225 -11.04092937 6.33297433 -11 4 C-10 3 -10 3 -7.93359375 2.90234375 C-6.69802734 2.91974609 -6.69802734 2.91974609 -5.4375 2.9375 C-4.61121094 2.94652344 -3.78492188 2.95554688 -2.93359375 2.96484375 C-2.29550781 2.97644531 -1.65742188 2.98804688 -1 3 C-0.67 2.01 -0.34 1.02 0 0 Z " fill="#0F0F15" transform="translate(143,166)"/>
<path d="M0 0 C5.61 0 11.22 0 17 0 C17.33 0.99 17.66 1.98 18 3 C17.34 3.66 16.68 4.32 16 5 C15.34 4.67 14.68 4.34 14 4 C12.45976004 3.93049459 10.91665012 3.91547643 9.375 3.9375 C8.55773437 3.94652344 7.74046875 3.95554688 6.8984375 3.96484375 C6.27195312 3.97644531 5.64546875 3.98804688 5 4 C4.89042969 4.83144531 4.78085937 5.66289062 4.66796875 6.51953125 C4.50941406 7.60621094 4.35085938 8.69289062 4.1875 9.8125 C4.03667969 10.89144531 3.88585937 11.97039062 3.73046875 13.08203125 C3 16 3 16 0 19 C0 12.73 0 6.46 0 0 Z " fill="#040101" transform="translate(375,165)"/>
<path d="M0 0 C0.33 0 0.66 0 1 0 C1 4.62 1 9.24 1 14 C0.67 14 0.34 14 0 14 C0 12.35 0 10.7 0 9 C-4.95 9 -9.9 9 -15 9 C-15 6.69 -15 4.38 -15 2 C-10.05 2 -5.1 2 0 2 C0 1.34 0 0.68 0 0 Z " fill="#E5E9EB" transform="translate(245,177)"/>
<path d="M0 0 C0.99 0.33 1.98 0.66 3 1 C4.60365544 9.00084617 4.60365544 9.00084617 2.1875 13 C-1.07587346 15.98365573 -2.79825458 16.1179711 -7.125 16.0625 C-8.03507812 16.05347656 -8.94515625 16.04445312 -9.8828125 16.03515625 C-10.93082031 16.01775391 -10.93082031 16.01775391 -12 16 C-12.66 14.68 -13.32 13.36 -14 12 C-11.61019382 11.35659065 -9.41244282 10.94004519 -6.9375 10.6875 C-3.96612406 10.2485688 -3.96612406 10.2485688 -2.1875 8.3125 C-0.76956473 5.55125763 -0.34885393 3.06991457 0 0 Z " fill="#06070E" transform="translate(308,132)"/>
<path d="M0 0 C0.66 0 1.32 0 2 0 C2 8.58 2 17.16 2 26 C0.02 26 -1.96 26 -4 26 C-4 22.37 -4 18.74 -4 15 C-3.01 15 -2.02 15 -1 15 C-1.01160156 14.00097656 -1.02320313 13.00195312 -1.03515625 11.97265625 C-1.04869141 10.03712891 -1.04869141 10.03712891 -1.0625 8.0625 C-1.07410156 6.77472656 -1.08570313 5.48695313 -1.09765625 4.16015625 C-1 1 -1 1 0 0 Z " fill="#0F0508" transform="translate(268,165)"/>
<path d="M0 0 C3.50782101 3.39466549 5.14987787 5.21209984 5.3125 10.125 C5.24841531 15.08355321 4.03198522 19.03807682 1 23 C-1.75 24.5 -1.75 24.5 -4 25 C-2.68 22.36 -1.36 19.72 0 17 C-0.66 17 -1.32 17 -2 17 C-2 13.37 -2 9.74 -2 6 C-1.34 5.67 -0.68 5.34 0 5 C0 3.35 0 1.7 0 0 Z " fill="#1B1515" transform="translate(342,166)"/>
<path d="M0 0 C2.31 0 4.62 0 7 0 C7.66 2.31 8.32 4.62 9 7 C7.68 7.33 6.36 7.66 5 8 C5.33 10.64 5.66 13.28 6 16 C4.02 16 2.04 16 0 16 C0.66 13.36 1.32 10.72 2 8 C1.01 7.67 0.02 7.34 -1 7 C-2 4 -2 4 -1.0625 1.8125 C-0.5365625 0.9153125 -0.5365625 0.9153125 0 0 Z M0 5 C1 7 1 7 1 7 Z " fill="#060405" transform="translate(180,165)"/>
<path d="M0 0 C0.33 0 0.66 0 1 0 C1.33 1.65 1.66 3.3 2 5 C2.45375 4.175 2.9075 3.35 3.375 2.5 C3.91125 1.675 4.4475 0.85 5 0 C5.66 0 6.32 0 7 0 C7.06058594 0.81984375 7.12117187 1.6396875 7.18359375 2.484375 C7.26738281 3.56203125 7.35117188 4.6396875 7.4375 5.75 C7.51871094 6.81734375 7.59992188 7.8846875 7.68359375 8.984375 C7.94090773 11.43679962 8.31812218 13.63921291 9 16 C8.01 16 7.02 16 6 16 C5.34 16.99 4.68 17.98 4 19 C3.132758 16.58732675 2.28103064 14.17095531 1.4375 11.75 C1.19064453 11.06808594 0.94378906 10.38617188 0.68945312 9.68359375 C-1.47053761 3.41657839 -1.47053761 3.41657839 0 0 Z " fill="#E9EAE5" transform="translate(191,172)"/>
<path d="M0 0 C2.76276177 0.52268466 5.3260876 1.10869587 8 2 C7.50886719 2.51046875 7.01773437 3.0209375 6.51171875 3.546875 C4.44877777 6.89448982 4.70422499 9.35209972 4.8125 13.25 C4.83957031 14.51328125 4.86664063 15.7765625 4.89453125 17.078125 C4.92933594 18.04234375 4.96414063 19.0065625 5 20 C4.34 20.33 3.68 20.66 3 21 C2.34 20.67 1.68 20.34 1 20 C-0.25210677 13.36383412 -0.10098969 6.7326463 0 0 Z " fill="#F9F8F6" transform="translate(270,165)"/>
<path d="M0 0 C1.2065625 0.0309375 1.2065625 0.0309375 2.4375 0.0625 C3.0975 1.3825 3.7575 2.7025 4.4375 4.0625 C6.0875 4.0625 7.7375 4.0625 9.4375 4.0625 C9.7675 6.3725 10.0975 8.6825 10.4375 11.0625 C8.4575 11.0625 6.4775 11.0625 4.4375 11.0625 C4.7675 10.0725 5.0975 9.0825 5.4375 8.0625 C4.4475 7.7325 3.4575 7.4025 2.4375 7.0625 C2.1075 7.7225 1.7775 8.3825 1.4375 9.0625 C-0.75441368 6.87058632 -0.84119352 5.94772592 -1.5625 3.0625 C-2.2225 2.4025 -2.8825 1.7425 -3.5625 1.0625 C-2.5625 0.0625 -2.5625 0.0625 0 0 Z M10.4375 4.0625 C11.4275 4.5575 11.4275 4.5575 12.4375 5.0625 C11.4475 5.5575 11.4475 5.5575 10.4375 6.0625 C10.4375 5.4025 10.4375 4.7425 10.4375 4.0625 Z " fill="#FBFBF9" transform="translate(210.5625,169.9375)"/>
<path d="M0 0 C0.33 0 0.66 0 1 0 C1 6.6 1 13.2 1 20 C4.35286458 19.70703125 7.70572917 19.4140625 11.05859375 19.12109375 C12.51458984 19.06115234 12.51458984 19.06115234 14 19 C14.33 19.33 14.66 19.66 15 20 C15.33 13.4 15.66 6.8 16 0 C16.33 0 16.66 0 17 0 C17 8.58 17 17.16 17 26 C15.35 26.33 13.7 26.66 12 27 C12.33 25.02 12.66 23.04 13 21 C8.71 21 4.42 21 0 21 C0 14.07 0 7.14 0 0 Z " fill="#C5C5C1" transform="translate(308,165)"/>
<path d="M0 0 C0.33 0 0.66 0 1 0 C1 8.58 1 17.16 1 26 C0.67 26 0.34 26 0 26 C-0.33 24.02 -0.66 22.04 -1 20 C-2.98 21.65 -4.96 23.3 -7 25 C-6.7834375 24.46632812 -6.566875 23.93265625 -6.34375 23.3828125 C-4.12101138 17.43492861 -3.64382865 12.31874363 -4 6 C-3.01 6.33 -2.02 6.66 -1 7 C-0.67 4.69 -0.34 2.38 0 0 Z " fill="#E3E7E2" transform="translate(350,165)"/>
<path d="M0 0 C2 2 2 2 2.3125 4.25 C2 7 2 7 0.5625 9.8125 C-1.3396613 13.69290904 -1.63072454 16.71640464 -2 21 C-3.65 21 -5.3 21 -7 21 C-5.180206 13.74839665 -2.93841629 6.87619244 0 0 Z " fill="#130906" transform="translate(178,170)"/>
<path d="M0 0 C7.50769231 -0.36923077 7.50769231 -0.36923077 10 1.5 C10.495 2.2425 10.495 2.2425 11 3 C10.34 4.32 9.68 5.64 9 7 C6.03 7 3.06 7 0 7 C0 4.69 0 2.38 0 0 Z " fill="#DEE5E6" transform="translate(380,169)"/>
<path d="M0 0 C0.99 0.66 1.98 1.32 3 2 C2.125 6.875 2.125 6.875 1 8 C0.76636119 9.84891946 0.58696365 11.70488031 0.4375 13.5625 C0.35371094 14.57441406 0.26992188 15.58632812 0.18359375 16.62890625 C0.12300781 17.41136719 0.06242187 18.19382813 0 19 C-0.66 18.67 -1.32 18.34 -2 18 C-2.4140625 15.71484375 -2.4140625 15.71484375 -2.625 12.9375 C-2.73714844 11.55884766 -2.73714844 11.55884766 -2.8515625 10.15234375 C-2.92503906 9.08693359 -2.92503906 9.08693359 -3 8 C-3.66 8 -4.32 8 -5 8 C-5.33 7.01 -5.66 6.02 -6 5 C-4.02 3.35 -2.04 1.7 0 0 Z " fill="#F3F0E7" transform="translate(288,120)"/>
<path d="M0 0 C3.0625 0.1875 3.0625 0.1875 5.0625 2.1875 C4.50694444 6.74305556 4.50694444 6.74305556 3.0625 8.1875 C0.72952567 8.22842937 -1.60455225 8.22991723 -3.9375 8.1875 C-3.97991723 5.85455225 -3.97842937 3.52047433 -3.9375 1.1875 C-2.9375 0.1875 -2.9375 0.1875 0 0 Z " fill="#DADFDF" transform="translate(135.9375,168.8125)"/>
<path d="M0 0 C4.92314194 1.23078549 7.26518192 2.68740225 10 7 C10 7.99 10 8.98 10 10 C5.92344826 10.47401764 4.41656249 10.31020611 1.0625 7.8125 C-1 5 -1 5 -0.8125 2.1875 C-0.544375 1.465625 -0.27625 0.74375 0 0 Z " fill="#171618" transform="translate(211,164)"/>
<path d="M0 0 C2.97 0 5.94 0 9 0 C8.67 3.3 8.34 6.6 8 10 C6.35 10.33 4.7 10.66 3 11 C3.57584432 8.61435923 4.22227595 6.33317216 5 4 C3.35 4 1.7 4 0 4 C0 2.68 0 1.36 0 0 Z " fill="#090404" transform="translate(273,134)"/>
<path d="M0 0 C4.29 0 8.58 0 13 0 C12.67 1.65 12.34 3.3 12 5 C8.04 5 4.08 5 0 5 C0 3.35 0 1.7 0 0 Z " fill="#FCFEFE" transform="translate(357,180)"/>
<path d="M0 0 C0.99 0.33 1.98 0.66 3 1 C5.22574335 1.22451458 7.45581519 1.40782878 9.6875 1.5625 C10.86699219 1.64628906 12.04648438 1.73007813 13.26171875 1.81640625 C14.61716797 1.90728516 14.61716797 1.90728516 16 2 C16 2.33 16 2.66 16 3 C11.38 3 6.76 3 2 3 C2 11.58 2 20.16 2 29 C1.67 29 1.34 29 1 29 C0.94465088 28.31373535 0.88930176 27.6274707 0.83227539 26.92041016 C0.57994697 23.82157565 0.32130351 20.72330016 0.0625 17.625 C-0.02451172 16.54476562 -0.11152344 15.46453125 -0.20117188 14.3515625 C-0.28818359 13.3203125 -0.37519531 12.2890625 -0.46484375 11.2265625 C-0.543396 10.27346191 -0.62194824 9.32036133 -0.70288086 8.33837891 C-0.87128174 5.98168205 -0.87128174 5.98168205 -2 4 C-1.34 4 -0.68 4 0 4 C0 2.68 0 1.36 0 0 Z " fill="#DED8CD" transform="translate(125,162)"/>
<path d="M0 0 C2 1 2 1 4 3 C4.39296656 6.09461163 4.61866635 8.04348869 4 11 C2 13.5 2 13.5 0 15 C-0.12375 14.360625 -0.2475 13.72125 -0.375 13.0625 C-0.58125 12.381875 -0.7875 11.70125 -1 11 C-1.66 10.67 -2.32 10.34 -3 10 C-2.67 8.35 -2.34 6.7 -2 5 C-2.66 4.67 -3.32 4.34 -4 4 C-2.68 3.67 -1.36 3.34 0 3 C0 2.01 0 1.02 0 0 Z " fill="#0D0B0F" transform="translate(392,165)"/>
<path d="M0 0 C1.88801974 2.83202961 2.96101651 5.26025619 4.125 8.4375 C4.47820312 9.38496094 4.83140625 10.33242187 5.1953125 11.30859375 C6 14 6 14 6 18 C4.02 18 2.04 18 0 18 C0 12.06 0 6.12 0 0 Z " fill="#0D111C" transform="translate(189,173)"/>
<path d="M0 0 C0.33 0 0.66 0 1 0 C1 8.58 1 17.16 1 26 C0.67 26 0.34 26 0 26 C-0.33 21.71 -0.66 17.42 -1 13 C-1.99 13 -2.98 13 -4 13 C-3.96519531 12.07767578 -3.96519531 12.07767578 -3.9296875 11.13671875 C-3.91164062 10.32847656 -3.89359375 9.52023438 -3.875 8.6875 C-3.84019531 7.48673828 -3.84019531 7.48673828 -3.8046875 6.26171875 C-3.84182678 3.71611424 -3.84182678 3.71611424 -6 1 C-4.68 1 -3.36 1 -2 1 C-2 2.65 -2 4.3 -2 6 C-1.34 6 -0.68 6 0 6 C0 4.02 0 2.04 0 0 Z " fill="#CDCAC4" transform="translate(150,165)"/>
<path d="M0 0 C1.984375 1.484375 1.984375 1.484375 4 4 C4.2906124 6.89449949 4.38186045 9.37949935 4.25 12.25 C4.23195313 12.99507812 4.21390625 13.74015625 4.1953125 14.5078125 C4.14835649 16.33909701 4.07661652 18.16971649 4 20 C3.01 19.34 2.02 18.68 1 18 C0.34 18.33 -0.32 18.66 -1 19 C-0.96519531 17.78763672 -0.96519531 17.78763672 -0.9296875 16.55078125 C-0.91164063 15.48214844 -0.89359375 14.41351563 -0.875 13.3125 C-0.85179687 12.25675781 -0.82859375 11.20101562 -0.8046875 10.11328125 C-1.00141271 6.97748141 -1.66942346 4.82354627 -3 2 C-2.01 1.34 -1.02 0.68 0 0 Z " fill="#DCE0DC" transform="translate(257,123)"/>
<path d="M0 0 C0.33 1.32 0.66 2.64 1 4 C-0.98 4 -2.96 4 -5 4 C-4.67 3.01 -4.34 2.02 -4 1 C-2 0 -2 0 0 0 Z M-3 4 C-2.01 4.66 -1.02 5.32 0 6 C-0.495 6.515625 -0.99 7.03125 -1.5 7.5625 C-3.56178923 10.9129075 -3.40800889 13.12391554 -3 17 C-1.63002843 19.87146994 -1.63002843 19.87146994 0 22 C-3 22 -3 22 -4.67578125 20.328125 C-6.25231712 17.55639822 -6.31229502 15.91147376 -6.1875 12.75 C-6.16042969 11.85796875 -6.13335937 10.9659375 -6.10546875 10.046875 C-6.07066406 9.37140625 -6.03585938 8.6959375 -6 8 C-5.34 8 -4.68 8 -4 8 C-3.67 6.68 -3.34 5.36 -3 4 Z " fill="#080D1A" transform="translate(241,121)"/>
<path d="M0 0 C0.66 0 1.32 0 2 0 C2 8.58 2 17.16 2 26 C1.34 26 0.68 26 0 26 C-0.19583915 21.85451585 -0.38027842 17.7086033 -0.5625 13.5625 C-0.61857422 12.37849609 -0.67464844 11.19449219 -0.73242188 9.97460938 C-0.78076172 8.84990234 -0.82910156 7.72519531 -0.87890625 6.56640625 C-0.9260376 5.52427979 -0.97316895 4.48215332 -1.02172852 3.40844727 C-1 1 -1 1 0 0 Z " fill="#111E3F" transform="translate(268,165)"/>
<path d="M0 0 C0.66 0 1.32 0 2 0 C2.94148531 2.82445592 3.07311695 4.14171618 2.87890625 7.01171875 C2.83056641 7.76904297 2.78222656 8.52636719 2.73242188 9.30664062 C2.67634766 10.09232422 2.62027344 10.87800781 2.5625 11.6875 C2.51029297 12.48478516 2.45808594 13.28207031 2.40429688 14.10351562 C2.27480978 16.06936522 2.13809959 18.03473665 2 20 C5.63 20 9.26 20 13 20 C13 20.33 13 20.66 13 21 C8.71 21 4.42 21 0 21 C0 14.07 0 7.14 0 0 Z " fill="#D2E2E8" transform="translate(156,165)"/>
<path d="M0 0 C0.33 0 0.66 0 1 0 C1.07347656 0.92232422 1.07347656 0.92232422 1.1484375 1.86328125 C1.22320312 2.67152344 1.29796875 3.47976562 1.375 4.3125 C1.44460938 5.11300781 1.51421875 5.91351563 1.5859375 6.73828125 C1.89564426 9.27224441 1.89564426 9.27224441 4 12 C3.01 12.495 3.01 12.495 2 13 C2.33 14.32 2.66 15.64 3 17 C-0.66932093 15.355132 -3.17666069 13.64667862 -5 10 C-5.039992 8.00039988 -5.04346799 5.99952758 -5 4 C-3.68 5.32 -2.36 6.64 -1 8 C-0.67 5.36 -0.34 2.72 0 0 Z " fill="#190F0B" transform="translate(293,131)"/>
<path d="M0 0 C0.66 0 1.32 0 2 0 C1.125 5.75 1.125 5.75 0 8 C0.99 8.33 1.98 8.66 3 9 C3 9.99 3 10.98 3 12 C2.38125 12.061875 1.7625 12.12375 1.125 12.1875 C-1.27761141 12.828919 -1.27761141 12.828919 -2.25 15.5625 C-2.4975 16.366875 -2.745 17.17125 -3 18 C-3.33 18 -3.66 18 -4 18 C-4.51137226 11.09647445 -2.86964374 6.25172386 0 0 Z " fill="#00040B" transform="translate(180,173)"/>
<path d="M0 0 C0.33 0 0.66 0 1 0 C1 2.31 1 4.62 1 7 C2.65 7 4.3 7 6 7 C6.33 8.32 6.66 9.64 7 11 C7.66 11 8.32 11 9 11 C9 10.01 9 9.02 9 8 C10.32 8 11.64 8 13 8 C12.375 9.9375 12.375 9.9375 11 12 C8.1875 13.0625 8.1875 13.0625 5 13 C2.125 11.0625 2.125 11.0625 0 8 C-0.40931845 5.19176458 -0.24244413 2.86084074 0 0 Z " fill="#EEEDE9" transform="translate(265,131)"/>
<path d="M0 0 C4.29 0 8.58 0 13 0 C13 1.65 13 3.3 13 5 C8.71 4.67 4.42 4.34 0 4 C0 2.68 0 1.36 0 0 Z " fill="#FBFDFE" transform="translate(357,170)"/>
<path d="M0 0 C1.65 0.33 3.3 0.66 5 1 C6.28317892 4.84953676 6.06643637 7.94738135 6 12 C5.01 12 4.02 12 3 12 C3 10.35 3 8.7 3 7 C2.34 6.67 1.68 6.34 1 6 C1 7.98 1 9.96 1 12 C0.67 12 0.34 12 0 12 C-0.19477739 10.37585622 -0.38059458 8.75063577 -0.5625 7.125 C-0.66691406 6.22007812 -0.77132813 5.31515625 -0.87890625 4.3828125 C-1 2 -1 2 0 0 Z " fill="#0F0503" transform="translate(307,126)"/>
<path d="M0 0 C0.66 0 1.32 0 2 0 C2 3.3 2 6.6 2 10 C1.01 10 0.02 10 -1 10 C-2.25 3.375 -2.25 3.375 0 0 Z M-1 10 C-1 10.66 -1 11.32 -1 12 C-4.63 12 -8.26 12 -12 12 C-12 11.67 -12 11.34 -12 11 C-10.5437328 10.63743142 -9.08488815 10.28520207 -7.625 9.9375 C-6.40683594 9.64166016 -6.40683594 9.64166016 -5.1640625 9.33984375 C-3 9 -3 9 -1 10 Z " fill="#EFEDE1" transform="translate(230,131)"/>
<path d="M0 0 C4.4062186 1.34634457 6.43077702 3.19374374 9 7 C9 7.66 9 8.32 9 9 C6.1875 9.25 6.1875 9.25 3 9 C1.125 7 1.125 7 0 5 C0.66 4.01 1.32 3.02 2 2 C1.34 2 0.68 2 0 2 C0 1.34 0 0.68 0 0 Z " fill="#0D0F14" transform="translate(275,121)"/>
<path d="M0 0 C0.66 0 1.32 0 2 0 C3.35281371 2.70562743 3.20609362 4.91893655 3.25 7.9375 C3.27578125 8.99839844 3.3015625 10.05929688 3.328125 11.15234375 C3 14 3 14 1.484375 15.87890625 C0.99453125 16.24886719 0.5046875 16.61882812 0 17 C-0.99 16.67 -1.98 16.34 -3 16 C-2.505 15.030625 -2.01 14.06125 -1.5 13.0625 C0.39857367 8.71271619 0.28589988 4.66969796 0 0 Z " fill="#E9F4F8" transform="translate(298,172)"/>
<path d="M0 0 C0.33 0 0.66 0 1 0 C1.52249975 6.26999696 1.19806732 11.98397114 -3 17 C-5.64453125 18.22265625 -5.64453125 18.22265625 -8 19 C-7.21572648 17.35063087 -6.42234741 15.70558873 -5.625 14.0625 C-5.18414062 13.14597656 -4.74328125 12.22945312 -4.2890625 11.28515625 C-3 9 -3 9 -1 8 C-0.53476937 6.10466658 -0.53476937 6.10466658 -0.375 3.9375 C-0.25125 2.638125 -0.1275 1.33875 0 0 Z " fill="#162131" transform="translate(346,172)"/>
<path d="M0 0 C2.375 0.3125 2.375 0.3125 5 1 C5.66 1.99 6.32 2.98 7 4 C6.01 4 5.02 4 4 4 C4.66 5.65 5.32 7.3 6 9 C2.34683329 7.75023244 1.21934164 7.32901247 -1 4 C-0.625 1.8125 -0.625 1.8125 0 0 Z " fill="#181514" transform="translate(276,182)"/>
<path d="M0 0 C1.52519276 0.08937803 3.04681929 0.24537146 4.5625 0.4375 C5.80193359 0.59025391 5.80193359 0.59025391 7.06640625 0.74609375 C7.70449219 0.82988281 8.34257812 0.91367188 9 1 C9 2.32 9 3.64 9 5 C6.36 5 3.72 5 1 5 C0.34 3.68 -0.32 2.36 -1 1 C-0.67 0.67 -0.34 0.34 0 0 Z " fill="#020204" transform="translate(295,143)"/>
<path d="M0 0 C1.32 0.33 2.64 0.66 4 1 C3.34 2.32 2.68 3.64 2 5 C1.34 5 0.68 5 0 5 C0.33 8.3 0.66 11.6 1 15 C0.01 14.67 -0.98 14.34 -2 14 C-2.05410687 12.22950311 -2.09284119 10.45853151 -2.125 8.6875 C-2.14820313 7.70136719 -2.17140625 6.71523437 -2.1953125 5.69921875 C-2 3 -2 3 0 0 Z " fill="#090206" transform="translate(235,124)"/>
<path d="M0 0 C1.5 1 1.5 1 3 3 C3.36302306 7.57409061 3.62404613 11.06393081 1 15 C0.34 14.34 -0.32 13.68 -1 13 C-0.67 12.01 -0.34 11.02 0 10 C-0.13174146 7.73884736 -0.13174146 7.73884736 -0.5 5.375 C-0.70692356 3.92183224 -0.88341126 2.46318863 -1 1 C-0.67 0.67 -0.34 0.34 0 0 Z " fill="#F0E9DD" transform="translate(338,170)"/>
<path d="M0 0 C0.33 0.99 0.66 1.98 1 3 C0.67 3.66 0.34 4.32 0 5 C0.66 5 1.32 5 2 5 C2.33 4.34 2.66 3.68 3 3 C4 4 4 4 4.0625 7.0625 C4.041875 8.031875 4.02125 9.00125 4 10 C1.03 9.505 1.03 9.505 -2 9 C-2 6.69 -2 4.38 -2 2 C-1.34 2 -0.68 2 0 2 C0 1.34 0 0.68 0 0 Z " fill="#F8FBF9" transform="translate(268,129)"/>
<path d="M0 0 C0.639375 0.495 1.27875 0.99 1.9375 1.5 C3.70974339 3.09802862 3.70974339 3.09802862 5 3 C5 5.64 5 8.28 5 11 C1.125 9.25 1.125 9.25 0 7 C-0.04022391 4.6670134 -0.04320247 2.33293334 0 0 Z " fill="#060104" transform="translate(251,126)"/>
<path d="M0 0 C3.11954738 0.33724836 4.6209965 0.6209965 6.875 2.875 C7.24625 3.57625 7.6175 4.2775 8 5 C7.67 5.99 7.34 6.98 7 8 C6.01 7.01 5.02 6.02 4 5 C3.01 6.485 3.01 6.485 2 8 C2 7.34 2 6.68 2 6 C1.01 5.67 0.02 5.34 -1 5 C-0.34 4.67 0.32 4.34 1 4 C0.67 2.68 0.34 1.36 0 0 Z " fill="#121317" transform="translate(248,122)"/>
<path d="M0 0 C2.31 0 4.62 0 7 0 C5.68 1.32 4.36 2.64 3 4 C3.66 4.33 4.32 4.66 5 5 C4.67 5.66 4.34 6.32 4 7 C3.34 7 2.68 7 2 7 C1.67 7.99 1.34 8.98 1 10 C0.67 10 0.34 10 0 10 C0 6.7 0 3.4 0 0 Z " fill="#E1EAF1" transform="translate(380,181)"/>
<path d="M0 0 C2.80390987 2.80390987 2.66520791 5.11641171 3 9 C2.5625 11.4375 2.5625 11.4375 2 13 C1.34 13 0.68 13 0 13 C-0.66 9.37 -1.32 5.74 -2 2 C-1.34 2 -0.68 2 0 2 C0 1.34 0 0.68 0 0 Z " fill="#0D0501" transform="translate(293,167)"/>
<path d="M0 0 C1.98 0.495 1.98 0.495 4 1 C4.103125 1.639375 4.20625 2.27875 4.3125 2.9375 C4.539375 3.618125 4.76625 4.29875 5 5 C5.99 5.33 6.98 5.66 8 6 C7.34 6.66 6.68 7.32 6 8 C6 7.34 6 6.68 6 6 C3.61435923 6.57584432 1.33317216 7.22227595 -1 8 C-0.67 5.36 -0.34 2.72 0 0 Z " fill="#F2F1ED" transform="translate(285,140)"/>
<path d="M0 0 C6.15234375 0.5859375 6.15234375 0.5859375 8 1 C9 3 9 3 10 5 C7.36 5 4.72 5 2 5 C1.34 3.35 0.68 1.7 0 0 Z " fill="#030305" transform="translate(280,186)"/>
<path d="M0 0 C1.64826111 2.96687001 2.44271087 5.65626525 3 9 C2.01 9.33 1.02 9.66 0 10 C0 12.97 0 15.94 0 19 C-0.33 19 -0.66 19 -1 19 C-1.16873478 17.56274129 -1.33490737 16.12518162 -1.5 14.6875 C-1.5928125 13.88699219 -1.685625 13.08648437 -1.78125 12.26171875 C-2.2177595 7.74852229 -1.30397238 4.3194085 0 0 Z " fill="#C3D0D9" transform="translate(396,170)"/>
<path d="M0 0 C2.12508244 3.18762365 2.5020163 5.26512223 3 9 C1.02 9 -0.96 9 -3 9 C-2.01 6.03 -1.02 3.06 0 0 Z " fill="#CED2D2" transform="translate(183,172)"/>
<path d="M0 0 C0.66 0.33 1.32 0.66 2 1 C1.67 3.64 1.34 6.28 1 9 C-0.65 9 -2.3 9 -4 9 C-2.25 2.25 -2.25 2.25 0 0 Z " fill="#0A0302" transform="translate(175,182)"/>
<path d="M0 0 C0.66 0.33 1.32 0.66 2 1 C1.34 1.66 0.68 2.32 0 3 C-0.38015988 5.5963192 -0.50595314 8.1662335 -0.65625 10.78515625 C-0.7696875 11.51605469 -0.883125 12.24695313 -1 13 C-1.99 13.495 -1.99 13.495 -3 14 C-4.55024464 10.89951072 -4.28992015 8.42105782 -4 5 C-2 2.0625 -2 2.0625 0 0 Z " fill="#CAD9DF" transform="translate(241,126)"/>
<path d="M0 0 C0.99 0 1.98 0 3 0 C3 2.64 3 5.28 3 8 C2.01 8.33 1.02 8.66 0 9 C-0.33 9.66 -0.66 10.32 -1 11 C-1.125 6.25 -1.125 6.25 0 4 C-0.33 3.01 -0.66 2.02 -1 1 C-0.67 0.67 -0.34 0.34 0 0 Z " fill="#010109" transform="translate(343,172)"/>
<path d="M0 0 C0.33 0 0.66 0 1 0 C1.06058594 0.62648437 1.12117188 1.25296875 1.18359375 1.8984375 C1.26738281 2.71570313 1.35117187 3.53296875 1.4375 4.375 C1.55931641 5.59316406 1.55931641 5.59316406 1.68359375 6.8359375 C1.89090114 9.04272805 1.89090114 9.04272805 3 11 C0.69 11 -1.62 11 -4 11 C-4 9.35 -4 7.7 -4 6 C-3.34 6.66 -2.68 7.32 -2 8 C-1.7834375 7.13375 -1.7834375 7.13375 -1.5625 6.25 C-1.04166667 4.16666667 -0.52083333 2.08333333 0 0 Z " fill="#0C0C12" transform="translate(394,180)"/>
<path d="M0 0 C0.33 0 0.66 0 1 0 C1.33 4.62 1.66 9.24 2 14 C1.01 14 0.02 14 -1 14 C-1.02685938 11.85423363 -1.04633088 9.70837355 -1.0625 7.5625 C-1.07410156 6.36753906 -1.08570313 5.17257813 -1.09765625 3.94140625 C-1 1 -1 1 0 0 Z " fill="#EFE6D7" transform="translate(273,171)"/>
<path d="M0 0 C3.39914975 1.13304992 4.05254451 2.12518475 6 5 C3 7 3 7 0.3125 6.625 C-0.450625 6.41875 -1.21375 6.2125 -2 6 C-1.34 4.02 -0.68 2.04 0 0 Z " fill="#EBEBE7" transform="translate(299,137)"/>
<path d="M0 0 C0.33 0.99 0.66 1.98 1 3 C-0.81725675 5.82684384 -2.03937946 7.65310925 -5.25 8.8125 C-5.8275 8.874375 -6.405 8.93625 -7 9 C-7 8.01 -7 7.02 -7 6 C-6.34 6 -5.68 6 -5 6 C-4.67 5.01 -4.34 4.02 -4 3 C-3.01 2.67 -2.02 2.34 -1 2 C-0.67 1.34 -0.34 0.68 0 0 Z " fill="#090D15" transform="translate(297,182)"/>
<path d="M0 0 C0.66 0 1.32 0 2 0 C2 4.62 2 9.24 2 14 C1.67 14 1.34 14 1 14 C1 12.35 1 10.7 1 9 C0.34 9 -0.32 9 -1 9 C-0.67 6.03 -0.34 3.06 0 0 Z " fill="#151F35" transform="translate(282,134)"/>
<path d="M0 0 C0.66 0.33 1.32 0.66 2 1 C-0.25 3.5625 -0.25 3.5625 -3 6 C-5.3125 5.8125 -5.3125 5.8125 -7 5 C-7 3.68 -7 2.36 -7 1 C-5.824375 1.309375 -5.824375 1.309375 -4.625 1.625 C-3.75875 1.74875 -2.8925 1.8725 -2 2 C-1.34 1.34 -0.68 0.68 0 0 Z " fill="#15171B" transform="translate(218,185)"/>
<path d="M0 0 C0.66 0.33 1.32 0.66 2 1 C2 3.97 2 6.94 2 10 C2.66 10.33 3.32 10.66 4 11 C2.35 11 0.7 11 -1 11 C-0.67 9.35 -0.34 7.7 0 6 C-0.66 5.67 -1.32 5.34 -2 5 C-1.34 5 -0.68 5 0 5 C-0.33 4.01 -0.66 3.02 -1 2 C-0.67 1.34 -0.34 0.68 0 0 Z " fill="#F1E7DB" transform="translate(388,181)"/>
<path d="M0 0 C0.12375 1.2375 0.2475 2.475 0.375 3.75 C0.75746305 6.8762197 1.30549523 9.28879237 3 12 C2.01 12 1.02 12 0 12 C-0.50615298 10.73160474 -1.00469099 9.46016898 -1.5 8.1875 C-1.7784375 7.47980469 -2.056875 6.77210938 -2.34375 6.04296875 C-3 4 -3 4 -3 1 C-1 0 -1 0 0 0 Z " fill="#050815" transform="translate(203,174)"/>
<path d="M0 0 C0.99 0.9590625 0.99 0.9590625 2 1.9375 C5.85690912 4.58912502 8.37840033 4.68667121 13 5 C13 5.33 13 5.66 13 6 C6.375 7 6.375 7 3 7 C1.3125 5.75 1.3125 5.75 0 4 C0 2.68 0 1.36 0 0 Z " fill="#DBD5D0" transform="translate(261,143)"/>
<path d="M0 0 C3.93809611 3.76687454 3.93809611 3.76687454 4.09765625 6.9453125 C4.06510417 8.96354167 4.03255208 10.98177083 4 13 C2.20931427 10.3139714 1.33944209 8.3373411 0.375 5.3125 C-0.01558594 4.10013672 -0.01558594 4.10013672 -0.4140625 2.86328125 C-0.60742188 2.24839844 -0.80078125 1.63351563 -1 1 C-0.67 0.67 -0.34 0.34 0 0 Z " fill="#101A2B" transform="translate(295,168)"/>
<path d="M0 0 C0.99 0.33 1.98 0.66 3 1 C3.33 3.31 3.66 5.62 4 8 C3.01 8 2.02 8 1 8 C0 7 0 7 -0.0625 3.4375 C-0.041875 2.303125 -0.02125 1.16875 0 0 Z " fill="#020308" transform="translate(308,132)"/>
<path d="M0 0 C0.66 0.33 1.32 0.66 2 1 C2 3.64 2 6.28 2 9 C1.01 9 0.02 9 -1 9 C-1.33 6.69 -1.66 4.38 -2 2 C-1.34 2 -0.68 2 0 2 C0 1.34 0 0.68 0 0 Z " fill="#020710" transform="translate(278,173)"/>
<path d="M0 0 C1.65 0 3.3 0 5 0 C4.67 1.32 4.34 2.64 4 4 C2.02 4 0.04 4 -2 4 C-1.34 2.68 -0.68 1.36 0 0 Z " fill="#020301" transform="translate(207,187)"/>
<path d="M0 0 C2.67927341 4.01891012 2.15601248 6.24161923 2 11 C1.01 11 0.02 11 -1 11 C-1.0270043 9.54176788 -1.04639787 8.08339325 -1.0625 6.625 C-1.07410156 5.81289062 -1.08570313 5.00078125 -1.09765625 4.1640625 C-1 2 -1 2 0 0 Z " fill="#162432" transform="translate(311,127)"/>
<path d="M0 0 C-0.69941596 3.14737182 -1.76078698 6.02588876 -3 9 C-3.33 9 -3.66 9 -4 9 C-4 6.36 -4 3.72 -4 1 C-2 0 -2 0 0 0 Z " fill="#090C13" transform="translate(180,182)"/>
<path d="M0 0 C2.10633718 1.70828921 2.93801608 2.52148416 3.29296875 5.26171875 C3.25816406 6.06222656 3.22335937 6.86273438 3.1875 7.6875 C3.16042969 8.49574219 3.13335937 9.30398437 3.10546875 10.13671875 C3.07066406 10.75160156 3.03585937 11.36648437 3 12 C1 9 1 9 1 6 C0.34 5.34 -0.32 4.68 -1 4 C-0.625 1.875 -0.625 1.875 0 0 Z " fill="#E4D7C9" transform="translate(290,170)"/>
<path d="M0 0 C2 1 2 1 4 3 C4.36933645 5.75372909 4.18336678 8.20365661 4 11 C3.67 10.34 3.34 9.68 3 9 C2.34 8.67 1.68 8.34 1 8 C1.020625 7.236875 1.04125 6.47375 1.0625 5.6875 C1.12942841 2.89814214 1.12942841 2.89814214 0 0 Z " fill="#141B25" transform="translate(392,165)"/>
<path d="M0 0 C0.66 0 1.32 0 2 0 C2.66 2.31 3.32 4.62 4 7 C2.35 7.33 0.7 7.66 -1 8 C-1.33 7.34 -1.66 6.68 -2 6 C-1.34 6 -0.68 6 0 6 C0 4.02 0 2.04 0 0 Z " fill="#070E19" transform="translate(185,165)"/>
<path d="M0 0 C0.99 0 1.98 0 3 0 C2.67 1.65 2.34 3.3 2 5 C0.68 5.33 -0.64 5.66 -2 6 C-2 3 -2 3 0 0 Z " fill="#020201" transform="translate(208,164)"/>
<path d="M0 0 C2.97 0 5.94 0 9 0 C7.71937515 1.7074998 6.38232443 3.37373596 5 5 C4.34 5 3.68 5 3 5 C3 4.01 3 3.02 3 2 C2.01 1.34 1.02 0.68 0 0 Z " fill="#C4C5C1" transform="translate(179,185)"/>
<path d="M0 0 C3.39914975 1.13304992 4.05254451 2.12518475 6 5 C4.68 5.33 3.36 5.66 2 6 C1.67 5.01 1.34 4.02 1 3 C0.34 2.67 -0.32 2.34 -1 2 C-0.67 1.34 -0.34 0.68 0 0 Z " fill="#F5F0E7" transform="translate(274,186)"/>
<path d="M0 0 C2.69082872 0.17635452 5.32851446 0.61835921 8 1 C8 1.33 8 1.66 8 2 C6.02 2 4.04 2 2 2 C1.34 3.32 0.68 4.64 0 6 C-0.33 6 -0.66 6 -1 6 C-1.042721 4.33388095 -1.04063832 2.66617115 -1 1 C-0.67 0.67 -0.34 0.34 0 0 Z " fill="#DFDED7" transform="translate(213,180)"/>
<path d="M0 0 C0.33 0 0.66 0 1 0 C1.04898437 0.61488281 1.09796875 1.22976562 1.1484375 1.86328125 C1.22320312 2.67152344 1.29796875 3.47976562 1.375 4.3125 C1.44460938 5.11300781 1.51421875 5.91351563 1.5859375 6.73828125 C1.89564426 9.27224441 1.89564426 9.27224441 4 12 C2.68 12.33 1.36 12.66 0 13 C0 8.71 0 4.42 0 0 Z " fill="#3A4251" transform="translate(293,131)"/>
<path d="M0 0 C1.32 1.65 2.64 3.3 4 5 C3.34 5.66 2.68 6.32 2 7 C0.68 6.01 -0.64 5.02 -2 4 C-1.34 2.68 -0.68 1.36 0 0 Z " fill="#13100C" transform="translate(264,141)"/>
<path d="M0 0 C2.475 0.99 2.475 0.99 5 2 C4.34 3.32 3.68 4.64 3 6 C0.525 5.01 0.525 5.01 -2 4 C-1.34 2.68 -0.68 1.36 0 0 Z " fill="#100E12" transform="translate(307,138)"/>
<path d="M0 0 C0.33 0 0.66 0 1 0 C1 3.96 1 7.92 1 12 C0.01 12.33 -0.98 12.66 -2 13 C-1.34 8.71 -0.68 4.42 0 0 Z " fill="#D9F2F7" transform="translate(313,131)"/>
<path d="M0 0 C0.66 0.33 1.32 0.66 2 1 C1.1875 3.4375 1.1875 3.4375 0 6 C-0.99 6.33 -1.98 6.66 -3 7 C-3.66 7.99 -4.32 8.98 -5 10 C-4.49701212 5.59885603 -2.91227269 3.28804981 0 0 Z " fill="#1D140F" transform="translate(293,122)"/>
<path d="M0 0 C0.33 1.32 0.66 2.64 1 4 C-0.98 4.99 -0.98 4.99 -3 6 C-3.33 4.35 -3.66 2.7 -4 1 C-2 0 -2 0 0 0 Z " fill="#EBE3D7" transform="translate(390,170)"/>
<path d="M0 0 C0.66 0 1.32 0 2 0 C1.34 2.97 0.68 5.94 0 9 C-0.66 8.34 -1.32 7.68 -2 7 C-1.43181818 1.43181818 -1.43181818 1.43181818 0 0 Z " fill="#040000" transform="translate(290,128)"/>
<path d="M0 0 C0.33 1.32 0.66 2.64 1 4 C-0.98 4 -2.96 4 -5 4 C-4.67 3.01 -4.34 2.02 -4 1 C-2 0 -2 0 0 0 Z M-3 4 C-3 7 -3 7 -3 7 Z " fill="#151213" transform="translate(241,121)"/>
<path d="M0 0 C0.66 0.33 1.32 0.66 2 1 C1.25 2.9375 1.25 2.9375 0 5 C-2.125 5.75 -2.125 5.75 -4 6 C-1.125 1.125 -1.125 1.125 0 0 Z " fill="#181B21" transform="translate(342,185)"/>
<path d="M0 0 C-0.66 0.66 -1.32 1.32 -2 2 C-2.33 1.67 -2.66 1.34 -3 1 C-4.51469448 0.76807135 -6.03754562 0.58784762 -7.5625 0.4375 C-8.38878906 0.35371094 -9.21507812 0.26992187 -10.06640625 0.18359375 C-10.70449219 0.12300781 -11.34257812 0.06242188 -12 0 C-12 -0.33 -12 -0.66 -12 -1 C-3.42857143 -2.42857143 -3.42857143 -2.42857143 0 0 Z " fill="#232324" transform="translate(392,181)"/>
<path d="M0 0 C1.32 0 2.64 0 4 0 C3.67 1.65 3.34 3.3 3 5 C2.01 5.33 1.02 5.66 0 6 C-1 3 -1 3 0 0 Z " fill="#190C09" transform="translate(179,166)"/>
<path d="M0 0 C0.33 0 0.66 0 1 0 C1 2.31 1 4.62 1 7 C1.99 7.33 2.98 7.66 4 8 C3.67 8.99 3.34 9.98 3 11 C1.5 10 1.5 10 0 8 C-0.27345479 5.28153765 -0.13491285 2.74322801 0 0 Z " fill="#B5C4D3" transform="translate(265,131)"/>
</svg>
